<svg width="41" height="42" viewBox="0 0 41 42" fill="none" xmlns="http://www.w3.org/2000/svg">
<path fill-rule="evenodd" clip-rule="evenodd" d="M20.1814 26.6571C17.1245 26.6571 14.6365 24.1631 14.6365 21.0918C14.6365 18.0226 17.1245 15.5286 20.1814 15.5286C23.2353 15.5286 25.7209 18.0226 25.7209 21.0918C25.7209 24.1631 23.2353 26.6571 20.1814 26.6571ZM20.1814 16.9707C17.9149 16.9707 16.0736 18.82 16.0736 21.0918C16.0736 23.3636 17.9149 25.2148 20.1814 25.2148C22.4425 25.2148 24.2838 23.3636 24.2838 21.0918C24.2838 18.82 22.4425 16.9707 20.1814 16.9707ZM17.7661 41.1888C17.4376 41.1888 17.1508 40.9627 17.0698 40.6436L15.8336 35.6809C14.8712 35.3825 13.9219 34.9767 13.0038 34.4756L8.60644 37.1254C8.32485 37.2953 7.96243 37.2485 7.73016 37.0188L4.31358 33.5882C4.08139 33.3559 4.03709 32.9933 4.20659 32.7094L6.84606 28.302C6.35582 27.39 5.96191 26.4411 5.66992 25.4637L0.698621 24.2167C0.380546 24.137 0.153688 23.8464 0.153688 23.5187V18.6747C0.153688 18.3423 0.380546 18.0534 0.698621 17.9753L5.64117 16.7368C5.94369 15.7606 6.34791 14.8075 6.84344 13.8923L4.20406 9.4775C4.03456 9.19304 4.07898 8.82898 4.31096 8.59574L7.72238 5.1728C7.95715 4.93749 8.31961 4.88896 8.60137 5.06509L12.9986 7.7113C13.9036 7.22466 14.8503 6.82566 15.8231 6.53381L17.0645 1.5439C17.1454 1.22306 17.4323 0.997204 17.761 0.997204H22.5886C22.9171 0.997204 23.2066 1.22306 23.285 1.5439L24.5213 6.51045C25.4915 6.81352 26.4408 7.21788 27.3484 7.70773L31.7508 5.05651C32.0273 4.89459 32.3925 4.93749 32.6273 5.16748L36.0386 8.59068C36.2733 8.82392 36.3177 9.18684 36.1481 9.47306L33.5087 13.8923C33.9938 14.798 34.3877 15.7476 34.6798 16.7184L39.6561 17.9702C39.9768 18.0484 40.2012 18.3391 40.2012 18.6694V23.5095C40.2012 23.839 39.9768 24.1302 39.6561 24.2075L34.6798 25.4587C34.3877 26.439 33.9938 27.388 33.5113 28.2878L36.1534 32.7038C36.3228 32.9897 36.2786 33.3529 36.0439 33.5858L32.6324 37.0164C32.3978 37.2485 32.0351 37.2881 31.756 37.1254L27.3536 34.4732C26.446 34.9702 25.4966 35.371 24.5239 35.6777L23.2927 40.6406C23.2119 40.9603 22.925 41.1855 22.5938 41.1855L17.7661 41.1888ZM12.9909 32.9219C13.1134 32.9219 13.2385 32.9533 13.3505 33.0184C14.4044 33.6281 15.5076 34.0961 16.6265 34.4084C16.8743 34.4785 17.0646 34.6807 17.1297 34.9314L18.3296 39.7464L22.0331 39.7434L23.2303 34.9264C23.2928 34.678 23.4832 34.4785 23.7309 34.4084C24.8656 34.0887 25.9661 33.6201 27.0068 33.0166C27.2336 32.8828 27.5102 32.8873 27.7345 33.0198L32.0118 35.6L34.6329 32.9648L32.064 28.6758C31.9282 28.4496 31.9282 28.1694 32.0561 27.9418C32.6481 26.914 33.1019 25.8165 33.4097 24.6725C33.4775 24.4211 33.6758 24.2258 33.9286 24.163L38.7641 22.9456V19.232L33.9286 18.0164C33.6758 17.9548 33.4775 17.7586 33.4097 17.5058C33.1045 16.3727 32.6481 15.2698 32.0561 14.2336C31.9282 14.0098 31.9309 13.7303 32.064 13.5036L34.6276 9.21373L32.009 6.58618L27.7319 9.16163C27.5102 9.29689 27.2336 9.30314 27.0043 9.16757C25.9609 8.56433 24.8603 8.09666 23.7285 7.77607C23.4806 7.7077 23.2902 7.50996 23.2275 7.25868L22.028 2.43927H18.3244L17.1167 7.2871C17.0543 7.539 16.8586 7.74026 16.6083 7.80745C15.4737 8.11707 14.3757 8.57467 13.3429 9.16903C13.1186 9.30314 12.8421 9.30015 12.6152 9.16163L8.34315 6.58794L5.72461 9.21936L8.28837 13.5036C8.42401 13.7303 8.42401 14.0098 8.29374 14.2359C7.69114 15.2891 7.2217 16.3967 6.90603 17.5292C6.83561 17.7811 6.63741 17.972 6.38701 18.035L1.59084 19.2377V22.953L6.42095 24.1681C6.67397 24.2308 6.87213 24.4271 6.93993 24.679C7.24761 25.8147 7.70163 26.9164 8.29889 27.9539C8.42916 28.1812 8.42663 28.4615 8.2909 28.6856L5.72723 32.9698L8.3483 35.6024L12.6204 33.0264C12.7353 32.9568 12.8629 32.9219 12.9909 32.9219Z" fill="url(#paint0_linear_0_141)"/>
<path fill-rule="evenodd" clip-rule="evenodd" d="M20.1814 26.6571C17.1245 26.6571 14.6365 24.1631 14.6365 21.0918C14.6365 18.0226 17.1245 15.5286 20.1814 15.5286C23.2353 15.5286 25.7209 18.0226 25.7209 21.0918C25.7209 24.1631 23.2353 26.6571 20.1814 26.6571ZM20.1814 16.9707C17.9149 16.9707 16.0736 18.82 16.0736 21.0918C16.0736 23.3636 17.9149 25.2148 20.1814 25.2148C22.4425 25.2148 24.2838 23.3636 24.2838 21.0918C24.2838 18.82 22.4425 16.9707 20.1814 16.9707ZM17.7661 41.1888C17.4376 41.1888 17.1508 40.9627 17.0698 40.6436L15.8336 35.6809C14.8712 35.3825 13.9219 34.9767 13.0038 34.4756L8.60644 37.1254C8.32485 37.2953 7.96243 37.2485 7.73016 37.0188L4.31358 33.5882C4.08139 33.3559 4.03709 32.9933 4.20659 32.7094L6.84606 28.302C6.35582 27.39 5.96191 26.4411 5.66992 25.4637L0.698621 24.2167C0.380546 24.137 0.153688 23.8464 0.153688 23.5187V18.6747C0.153688 18.3423 0.380546 18.0534 0.698621 17.9753L5.64117 16.7368C5.94369 15.7606 6.34791 14.8075 6.84344 13.8923L4.20406 9.4775C4.03456 9.19304 4.07898 8.82898 4.31096 8.59574L7.72238 5.1728C7.95715 4.93749 8.31961 4.88896 8.60137 5.06509L12.9986 7.7113C13.9036 7.22466 14.8503 6.82566 15.8231 6.53381L17.0645 1.5439C17.1454 1.22306 17.4323 0.997204 17.761 0.997204H22.5886C22.9171 0.997204 23.2066 1.22306 23.285 1.5439L24.5213 6.51045C25.4915 6.81352 26.4408 7.21788 27.3484 7.70773L31.7508 5.05651C32.0273 4.89459 32.3925 4.93749 32.6273 5.16748L36.0386 8.59068C36.2733 8.82392 36.3177 9.18684 36.1481 9.47306L33.5087 13.8923C33.9938 14.798 34.3877 15.7476 34.6798 16.7184L39.6561 17.9702C39.9768 18.0484 40.2012 18.3391 40.2012 18.6694V23.5095C40.2012 23.839 39.9768 24.1302 39.6561 24.2075L34.6798 25.4587C34.3877 26.439 33.9938 27.388 33.5113 28.2878L36.1534 32.7038C36.3228 32.9897 36.2786 33.3529 36.0439 33.5858L32.6324 37.0164C32.3978 37.2485 32.0351 37.2881 31.756 37.1254L27.3536 34.4732C26.446 34.9702 25.4966 35.371 24.5239 35.6777L23.2927 40.6406C23.2119 40.9603 22.925 41.1855 22.5938 41.1855L17.7661 41.1888ZM12.9909 32.9219C13.1134 32.9219 13.2385 32.9533 13.3505 33.0184C14.4044 33.6281 15.5076 34.0961 16.6265 34.4084C16.8743 34.4785 17.0646 34.6807 17.1297 34.9314L18.3296 39.7464L22.0331 39.7434L23.2303 34.9264C23.2928 34.678 23.4832 34.4785 23.7309 34.4084C24.8656 34.0887 25.9661 33.6201 27.0068 33.0166C27.2336 32.8828 27.5102 32.8873 27.7345 33.0198L32.0118 35.6L34.6329 32.9648L32.064 28.6758C31.9282 28.4496 31.9282 28.1694 32.0561 27.9418C32.6481 26.914 33.1019 25.8165 33.4097 24.6725C33.4775 24.4211 33.6758 24.2258 33.9286 24.163L38.7641 22.9456V19.232L33.9286 18.0164C33.6758 17.9548 33.4775 17.7586 33.4097 17.5058C33.1045 16.3727 32.6481 15.2698 32.0561 14.2336C31.9282 14.0098 31.9309 13.7303 32.064 13.5036L34.6276 9.21373L32.009 6.58618L27.7319 9.16163C27.5102 9.29689 27.2336 9.30314 27.0043 9.16757C25.9609 8.56433 24.8603 8.09666 23.7285 7.77607C23.4806 7.7077 23.2902 7.50996 23.2275 7.25868L22.028 2.43927H18.3244L17.1167 7.2871C17.0543 7.539 16.8586 7.74026 16.6083 7.80745C15.4737 8.11707 14.3757 8.57467 13.3429 9.16903C13.1186 9.30314 12.8421 9.30015 12.6152 9.16163L8.34315 6.58794L5.72461 9.21936L8.28837 13.5036C8.42401 13.7303 8.42401 14.0098 8.29374 14.2359C7.69114 15.2891 7.2217 16.3967 6.90603 17.5292C6.83561 17.7811 6.63741 17.972 6.38701 18.035L1.59084 19.2377V22.953L6.42095 24.1681C6.67397 24.2308 6.87213 24.4271 6.93993 24.679C7.24761 25.8147 7.70163 26.9164 8.29889 27.9539C8.42916 28.1812 8.42663 28.4615 8.2909 28.6856L5.72723 32.9698L8.3483 35.6024L12.6204 33.0264C12.7353 32.9568 12.8629 32.9219 12.9909 32.9219Z" fill="#FF3B4A"/>
<defs>
<linearGradient id="paint0_linear_0_141" x1="20.6325" y1="-18.6419" x2="-19.5555" y2="20.492" gradientUnits="userSpaceOnUse">
<stop stop-color="white"/>
<stop offset="1" stop-color="white"/>
</linearGradient>
</defs>
</svg>
