<!-- icon666.com - MILLIONS vector ICONS FREE --><svg xmlns="http://www.w3.org/2000/svg" xmlns:xlink="http://www.w3.org/1999/xlink" version="1.1" id="Layer_1" x="0px" y="0px" viewBox="0 0 1080 1080" style="enable-background:new 0 0 1080 1080;" xml:space="preserve"><path d="M880,260H200c-33.1,0-60-26.9-60-60v0c0-33.1,26.9-60,60-60h680c33.1,0,60,26.9,60,60v0C940,233.1,913.1,260,880,260z" fill="#000000" style="fill: rgb(255, 255, 255);"></path><path d="M880,600H200c-33.1,0-60-26.9-60-60v0c0-33.1,26.9-60,60-60h680c33.1,0,60,26.9,60,60v0C940,573.1,913.1,600,880,600z" fill="#000000" style="fill: rgb(255, 255, 255);"></path><path d="M880,940H200c-33.1,0-60-26.9-60-60v0c0-33.1,26.9-60,60-60h680c33.1,0,60,26.9,60,60v0C940,913.1,913.1,940,880,940z" fill="#000000" style="fill: rgb(255, 255, 255);"></path></svg>